M48
INCH,TZ
T1C0.0390
%
G90
G05
T1
X39300Y-34500
X39300Y-35500
X39400Y-39400
X39400Y-40400
X42400Y-38100
X42400Y-46100
X42500Y-28400
X42500Y-36400
X45124Y-31424
X45124Y-32424
X45124Y-33424
X45124Y-34424
X45124Y-35424
X45124Y-36424
X45124Y-37424
X45124Y-38424
X45124Y-39424
X45124Y-40424
X53124Y-31424
X53124Y-32424
X53124Y-33424
X53124Y-34424
X53124Y-35424
X53124Y-36424
X53124Y-37424
X53124Y-38424
X53124Y-39424
X53124Y-40424
X56900Y-29000
X56900Y-30000
X56900Y-31000
X56900Y-32000
X57800Y-43100
X58300Y-40100
X60000Y-28900
X60000Y-29900
X60000Y-30900
X60000Y-31900
X60000Y-32900
X60000Y-33900
X60000Y-34900
X60000Y-35900
X63300Y-40100
X65000Y-28900
X65000Y-29900
X65000Y-30900
X65000Y-31900
X65000Y-32900
X65000Y-33900
X65000Y-34900
X65000Y-35900
X65800Y-43100
X68700Y-31000
X68700Y-32000
X68700Y-33000
X68700Y-34000
X69500Y-27000
X69500Y-28969
X73000Y-27000
X73000Y-29000
T0
M30
