M48
INCH,TZ
T1C0.0315
T2C0.0384
T3C0.0385
T4C0.0390
%
G90
G05
T1
X36000Y-34400
X40000Y-34400
T2
X31600Y-41100
X31600Y-43700
X32600Y-41100
X32600Y-43700
T3
X36000Y-36300
X36000Y-40500
X36100Y-38200
X40000Y-36300
X40000Y-40500
X40100Y-38200
X55200Y-35500
X55200Y-39500
X55400Y-42400
X59400Y-42400
T4
X30800Y-33000
X30800Y-37600
X33900Y-29100
X33900Y-31000
X33900Y-32000
X33900Y-33000
X33900Y-35500
X33900Y-36500
X33900Y-37500
X43924Y-33324
X43924Y-34324
X43924Y-35324
X43924Y-36324
X43924Y-37324
X43924Y-38324
X43924Y-39324
X43924Y-40324
X43924Y-41324
X43924Y-42324
X51924Y-33324
X51924Y-34324
X51924Y-35324
X51924Y-36324
X51924Y-37324
X51924Y-38324
X51924Y-39324
X51924Y-40324
X51924Y-41324
X51924Y-42324
T0
M30
