G04 #@! TF.GenerationSoftware,KiCad,Pcbnew,(5.1.10)-1*
G04 #@! TF.CreationDate,2021-11-08T21:38:05-05:00*
G04 #@! TF.ProjectId,SmartLights,536d6172-744c-4696-9768-74732e6b6963,rev?*
G04 #@! TF.SameCoordinates,Original*
G04 #@! TF.FileFunction,Soldermask,Top*
G04 #@! TF.FilePolarity,Negative*
%FSLAX46Y46*%
G04 Gerber Fmt 4.6, Leading zero omitted, Abs format (unit mm)*
G04 Created by KiCad (PCBNEW (5.1.10)-1) date 2021-11-08 21:38:05*
%MOMM*%
%LPD*%
G01*
G04 APERTURE LIST*
%ADD10O,1.600000X1.600000*%
%ADD11C,1.600000*%
%ADD12R,1.800000X1.800000*%
%ADD13C,1.800000*%
%ADD14C,1.524000*%
G04 APERTURE END LIST*
D10*
X140208000Y-100330000D03*
D11*
X140208000Y-90170000D03*
D10*
X150876000Y-107696000D03*
D11*
X140716000Y-107696000D03*
D10*
X91440000Y-87376000D03*
D11*
X101600000Y-87376000D03*
D10*
X91440000Y-102870000D03*
D11*
X101600000Y-102870000D03*
D10*
X91694000Y-97028000D03*
D11*
X101854000Y-97028000D03*
D10*
X91440000Y-92202000D03*
D11*
X101600000Y-92202000D03*
D12*
X80264000Y-104394000D03*
D13*
X82804000Y-104394000D03*
X82804000Y-110998000D03*
D12*
X80264000Y-110998000D03*
D14*
X86106000Y-90170000D03*
X86106000Y-92710000D03*
X86106000Y-95250000D03*
X86106000Y-83820000D03*
X86106000Y-81280000D03*
X86106000Y-78740000D03*
X111566001Y-84642001D03*
X111566001Y-87182001D03*
X111566001Y-89722001D03*
X111566001Y-92262001D03*
X111566001Y-94802001D03*
X111566001Y-97342001D03*
X111566001Y-99882001D03*
X111566001Y-102422001D03*
X111566001Y-104962001D03*
X111566001Y-107502001D03*
X131886001Y-94802001D03*
X131886001Y-89722001D03*
X131886001Y-84642001D03*
X131886001Y-97342001D03*
X131886001Y-99882001D03*
X131886001Y-102422001D03*
X131886001Y-87182001D03*
X131886001Y-92262001D03*
X131886001Y-104962001D03*
X131886001Y-107502001D03*
X78232000Y-95504000D03*
X78232000Y-83820000D03*
X86106000Y-73914000D03*
M02*
