%TF.GenerationSoftware,KiCad,Pcbnew,(5.1.10)-1*%
%TF.CreationDate,2021-11-06T16:25:45-04:00*%
%TF.ProjectId,SmartHub,536d6172-7448-4756-922e-6b696361645f,rev?*%
%TF.SameCoordinates,Original*%
%TF.FileFunction,Soldermask,Bot*%
%TF.FilePolarity,Negative*%
%FSLAX46Y46*%
G04 Gerber Fmt 4.6, Leading zero omitted, Abs format (unit mm)*
G04 Created by KiCad (PCBNEW (5.1.10)-1) date 2021-11-06 16:25:45*
%MOMM*%
%LPD*%
G01*
G04 APERTURE LIST*
%ADD10C,1.524000*%
%ADD11C,1.600000*%
%ADD12O,1.600000X1.600000*%
%ADD13R,1.800000X1.800000*%
%ADD14C,1.800000*%
%ADD15C,1.400000*%
%ADD16O,1.400000X1.400000*%
G04 APERTURE END LIST*
D10*
%TO.C,RTC*%
X175184000Y-72606000D03*
X177724000Y-72606000D03*
X180264000Y-72606000D03*
X182804000Y-72606000D03*
X185344000Y-72606000D03*
X187884000Y-72606000D03*
X190424000Y-72606000D03*
X192964000Y-72606000D03*
%TD*%
%TO.C,BH1750*%
X182804000Y-86576000D03*
X185344000Y-86576000D03*
X187884000Y-86576000D03*
X190424000Y-86576000D03*
X192964000Y-86576000D03*
X195504000Y-86576000D03*
%TD*%
D11*
%TO.C,R1*%
X180264000Y-94196000D03*
D12*
X190424000Y-94196000D03*
%TD*%
D10*
%TO.C,HUZZAH*%
X159944000Y-89116000D03*
X159944000Y-86576000D03*
X159944000Y-73876000D03*
X159944000Y-68796000D03*
X159944000Y-84036000D03*
X159944000Y-81496000D03*
X159944000Y-78956000D03*
X159944000Y-66256000D03*
X159944000Y-71336000D03*
X159944000Y-76416000D03*
X139624000Y-89116000D03*
X139624000Y-86576000D03*
X139624000Y-84036000D03*
X139624000Y-81496000D03*
X139624000Y-78956000D03*
X139624000Y-76416000D03*
X139624000Y-73876000D03*
X139624000Y-71336000D03*
X139624000Y-68796000D03*
X139624000Y-66256000D03*
%TD*%
D13*
%TO.C,D1*%
X125146000Y-108420000D03*
D14*
X122606000Y-108420000D03*
%TD*%
D13*
%TO.C,D2*%
X131496000Y-103340000D03*
D14*
X128956000Y-103340000D03*
%TD*%
D11*
%TO.C,R2*%
X122606000Y-86830000D03*
D12*
X122606000Y-96990000D03*
%TD*%
D11*
%TO.C,R3*%
X128956000Y-86830000D03*
D12*
X128956000Y-96990000D03*
%TD*%
D15*
%TO.C,SW1*%
X170104000Y-98006000D03*
D16*
X175184000Y-98006000D03*
%TD*%
M02*
