M48
INCH,TZ
T1C0.0351
T2C0.0354
T3C0.0355
T4C0.0380
T5C0.0390
%
G90
G05
T1
X48270Y-34185
T2
X48270Y-42685
X49270Y-42685
X50770Y-40685
X51770Y-40685
T3
X48270Y-38185
X50770Y-34185
X50770Y-38185
X70970Y-37085
X74970Y-37085
T4
X66970Y-38585
X68970Y-38585
T5
X54970Y-26085
X54970Y-27085
X54970Y-28085
X54970Y-29085
X54970Y-30085
X54970Y-31085
X54970Y-32085
X54970Y-33085
X54970Y-34085
X54970Y-35085
X62970Y-26085
X62970Y-27085
X62970Y-28085
X62970Y-29085
X62970Y-30085
X62970Y-31085
X62970Y-32085
X62970Y-33085
X62970Y-34085
X62970Y-35085
X68970Y-28585
X69970Y-28585
X70970Y-28585
X71970Y-28585
X71970Y-34085
X72970Y-28585
X72970Y-34085
X73970Y-28585
X73970Y-34085
X74970Y-28585
X74970Y-34085
X75970Y-28585
X75970Y-34085
X76970Y-34085
T0
M30
