%TF.GenerationSoftware,KiCad,Pcbnew,(5.1.10)-1*%
%TF.CreationDate,2021-11-06T16:25:45-04:00*%
%TF.ProjectId,SmartHub,536d6172-7448-4756-922e-6b696361645f,rev?*%
%TF.SameCoordinates,Original*%
%TF.FileFunction,Copper,L2,Bot*%
%TF.FilePolarity,Positive*%
%FSLAX46Y46*%
G04 Gerber Fmt 4.6, Leading zero omitted, Abs format (unit mm)*
G04 Created by KiCad (PCBNEW (5.1.10)-1) date 2021-11-06 16:25:45*
%MOMM*%
%LPD*%
G01*
G04 APERTURE LIST*
%TA.AperFunction,ComponentPad*%
%ADD10C,1.524000*%
%TD*%
%TA.AperFunction,ComponentPad*%
%ADD11C,1.600000*%
%TD*%
%TA.AperFunction,ComponentPad*%
%ADD12O,1.600000X1.600000*%
%TD*%
%TA.AperFunction,ComponentPad*%
%ADD13R,1.800000X1.800000*%
%TD*%
%TA.AperFunction,ComponentPad*%
%ADD14C,1.800000*%
%TD*%
%TA.AperFunction,ComponentPad*%
%ADD15C,1.400000*%
%TD*%
%TA.AperFunction,ComponentPad*%
%ADD16O,1.400000X1.400000*%
%TD*%
%TA.AperFunction,Conductor*%
%ADD17C,0.304800*%
%TD*%
G04 APERTURE END LIST*
D10*
%TO.P,RTC,8*%
%TO.N,Net-(U1-Pad8)*%
X175184000Y-72606000D03*
%TO.P,RTC,7*%
%TO.N,Net-(U1-Pad7)*%
X177724000Y-72606000D03*
%TO.P,RTC,6*%
%TO.N,Net-(U1-Pad6)*%
X180264000Y-72606000D03*
%TO.P,RTC,5*%
%TO.N,Net-(U1-Pad5)*%
X182804000Y-72606000D03*
%TO.P,RTC,4*%
%TO.N,Net-(U1-Pad4)*%
X185344000Y-72606000D03*
%TO.P,RTC,3*%
%TO.N,Net-(U1-Pad3)*%
X187884000Y-72606000D03*
%TO.P,RTC,2*%
%TO.N,GND*%
X190424000Y-72606000D03*
%TO.P,RTC,1*%
%TO.N,Net-(SW1-Pad1)*%
X192964000Y-72606000D03*
%TD*%
%TO.P,BH1750,6*%
%TO.N,GND*%
X182804000Y-86576000D03*
%TO.P,BH1750,5*%
%TO.N,Net-(U1-Pad4)*%
X185344000Y-86576000D03*
%TO.P,BH1750,4*%
%TO.N,Net-(U1-Pad3)*%
X187884000Y-86576000D03*
%TO.P,BH1750,3*%
%TO.N,GND*%
X190424000Y-86576000D03*
%TO.P,BH1750,2*%
%TO.N,Net-(SW1-Pad1)*%
X192964000Y-86576000D03*
%TO.P,BH1750,1*%
%TO.N,Net-(U2-Pad1)*%
X195504000Y-86576000D03*
%TD*%
D11*
%TO.P,R1,1*%
%TO.N,Net-(R1-Pad1)*%
X180264000Y-94196000D03*
D12*
%TO.P,R1,2*%
%TO.N,GND*%
X190424000Y-94196000D03*
%TD*%
D10*
%TO.P,HUZZAH,11*%
%TO.N,GND*%
X159944000Y-89116000D03*
%TO.P,HUZZAH,12*%
%TO.N,Net-(u1-Pad12)*%
X159944000Y-86576000D03*
%TO.P,HUZZAH,17*%
%TO.N,Net-(U1-Pad4)*%
X159944000Y-73876000D03*
%TO.P,HUZZAH,19*%
%TO.N,Net-(u1-Pad19)*%
X159944000Y-68796000D03*
%TO.P,HUZZAH,13*%
%TO.N,Net-(SW1-Pad1)*%
X159944000Y-84036000D03*
%TO.P,HUZZAH,14*%
%TO.N,Net-(R1-Pad1)*%
X159944000Y-81496000D03*
%TO.P,HUZZAH,15*%
%TO.N,Net-(u1-Pad15)*%
X159944000Y-78956000D03*
%TO.P,HUZZAH,20*%
%TO.N,Net-(u1-Pad20)*%
X159944000Y-66256000D03*
%TO.P,HUZZAH,18*%
%TO.N,Net-(U1-Pad3)*%
X159944000Y-71336000D03*
%TO.P,HUZZAH,16*%
%TO.N,Net-(u1-Pad16)*%
X159944000Y-76416000D03*
%TO.P,HUZZAH,10*%
%TO.N,GND*%
X139624000Y-89116000D03*
%TO.P,HUZZAH,9*%
%TO.N,Net-(u1-Pad9)*%
X139624000Y-86576000D03*
%TO.P,HUZZAH,8*%
%TO.N,Net-(u1-Pad8)*%
X139624000Y-84036000D03*
%TO.P,HUZZAH,7*%
%TO.N,Net-(R3-Pad1)*%
X139624000Y-81496000D03*
%TO.P,HUZZAH,6*%
%TO.N,Net-(R2-Pad1)*%
X139624000Y-78956000D03*
%TO.P,HUZZAH,5*%
%TO.N,Net-(u1-Pad5)*%
X139624000Y-76416000D03*
%TO.P,HUZZAH,4*%
%TO.N,Net-(u1-Pad4)*%
X139624000Y-73876000D03*
%TO.P,HUZZAH,3*%
%TO.N,Net-(u1-Pad3)*%
X139624000Y-71336000D03*
%TO.P,HUZZAH,2*%
%TO.N,Net-(u1-Pad2)*%
X139624000Y-68796000D03*
%TO.P,HUZZAH,1*%
%TO.N,Net-(u1-Pad1)*%
X139624000Y-66256000D03*
%TD*%
D13*
%TO.P,D1,1*%
%TO.N,GND*%
X125146000Y-108420000D03*
D14*
%TO.P,D1,2*%
%TO.N,Net-(D1-Pad2)*%
X122606000Y-108420000D03*
%TD*%
D13*
%TO.P,D2,1*%
%TO.N,GND*%
X131496000Y-103340000D03*
D14*
%TO.P,D2,2*%
%TO.N,Net-(D2-Pad2)*%
X128956000Y-103340000D03*
%TD*%
D11*
%TO.P,R2,1*%
%TO.N,Net-(R2-Pad1)*%
X122606000Y-86830000D03*
D12*
%TO.P,R2,2*%
%TO.N,Net-(D1-Pad2)*%
X122606000Y-96990000D03*
%TD*%
D11*
%TO.P,R3,1*%
%TO.N,Net-(R3-Pad1)*%
X128956000Y-86830000D03*
D12*
%TO.P,R3,2*%
%TO.N,Net-(D2-Pad2)*%
X128956000Y-96990000D03*
%TD*%
D15*
%TO.P,SW1,1*%
%TO.N,Net-(SW1-Pad1)*%
X170104000Y-98006000D03*
D16*
%TO.P,SW1,2*%
%TO.N,Net-(R1-Pad1)*%
X175184000Y-98006000D03*
%TD*%
D17*
%TO.N,Net-(R1-Pad1)*%
X167564000Y-81496000D02*
X180264000Y-94196000D01*
X159944000Y-81496000D02*
X167564000Y-81496000D01*
%TO.N,GND*%
X159944000Y-89116000D02*
X139624000Y-89116000D01*
%TO.N,Net-(SW1-Pad1)*%
X159944000Y-84036000D02*
X166040000Y-84036000D01*
X166040000Y-84036000D02*
X170104000Y-88100000D01*
X170104000Y-94450000D02*
X170104000Y-98006000D01*
X170104000Y-88100000D02*
X170104000Y-94450000D01*
%TO.N,Net-(U1-Pad3)*%
X159944000Y-71336000D02*
X168326000Y-71336000D01*
X168326000Y-71336000D02*
X169850000Y-69812000D01*
X185090000Y-69812000D02*
X187884000Y-72606000D01*
X169850000Y-69812000D02*
X185090000Y-69812000D01*
%TO.N,Net-(U1-Pad4)*%
X159944000Y-73876000D02*
X169088000Y-73876000D01*
X174422000Y-79210000D02*
X185344000Y-79210000D01*
X169088000Y-73876000D02*
X174422000Y-79210000D01*
X185344000Y-79210000D02*
X185344000Y-86576000D01*
X185344000Y-72606000D02*
X185344000Y-79210000D01*
%TD*%
M02*
