%TF.GenerationSoftware,KiCad,Pcbnew,(5.1.10)-1*%
%TF.CreationDate,2021-11-06T16:25:45-04:00*%
%TF.ProjectId,SmartHub,536d6172-7448-4756-922e-6b696361645f,rev?*%
%TF.SameCoordinates,Original*%
%TF.FileFunction,Legend,Top*%
%TF.FilePolarity,Positive*%
%FSLAX46Y46*%
G04 Gerber Fmt 4.6, Leading zero omitted, Abs format (unit mm)*
G04 Created by KiCad (PCBNEW (5.1.10)-1) date 2021-11-06 16:25:45*
%MOMM*%
%LPD*%
G01*
G04 APERTURE LIST*
%ADD10C,0.150000*%
%ADD11C,0.120000*%
G04 APERTURE END LIST*
D10*
X192456095Y-89076380D02*
X193075142Y-89076380D01*
X192741809Y-89457333D01*
X192884666Y-89457333D01*
X192979904Y-89504952D01*
X193027523Y-89552571D01*
X193075142Y-89647809D01*
X193075142Y-89885904D01*
X193027523Y-89981142D01*
X192979904Y-90028761D01*
X192884666Y-90076380D01*
X192598952Y-90076380D01*
X192503714Y-90028761D01*
X192456095Y-89981142D01*
X193360857Y-89076380D02*
X193694190Y-90076380D01*
X194027523Y-89076380D01*
D11*
%TO.C,RTC*%
X172644000Y-57366000D02*
X195504000Y-57366000D01*
X195504000Y-57366000D02*
X195504000Y-75146000D01*
X195504000Y-75146000D02*
X172644000Y-75146000D01*
X172644000Y-75146000D02*
X172644000Y-57366000D01*
%TO.C,BH1750*%
X198044000Y-86576000D02*
X198044000Y-88481000D01*
X180264000Y-88481000D02*
X180264000Y-86576000D01*
X198044000Y-88481000D02*
X180264000Y-88481000D01*
X198044000Y-84671000D02*
X198044000Y-86576000D01*
X189154000Y-84671000D02*
X198044000Y-84671000D01*
X180264000Y-84671000D02*
X189154000Y-84671000D01*
X180264000Y-86576000D02*
X180264000Y-84671000D01*
%TO.C,R1*%
X189384000Y-94196000D02*
X188614000Y-94196000D01*
X181304000Y-94196000D02*
X182074000Y-94196000D01*
X188614000Y-92826000D02*
X182074000Y-92826000D01*
X188614000Y-95566000D02*
X188614000Y-92826000D01*
X182074000Y-95566000D02*
X188614000Y-95566000D01*
X182074000Y-92826000D02*
X182074000Y-95566000D01*
%TO.C,HUZZAH*%
X137084000Y-96736000D02*
X142164000Y-96736000D01*
X137084000Y-77686000D02*
X137084000Y-96736000D01*
X137084000Y-58636000D02*
X137084000Y-77686000D01*
X142164000Y-58636000D02*
X137084000Y-58636000D01*
X137084000Y-96736000D02*
X137084000Y-58636000D01*
X162484000Y-96736000D02*
X142164000Y-96736000D01*
X162484000Y-58636000D02*
X162484000Y-96736000D01*
X142164000Y-58636000D02*
X162484000Y-58636000D01*
%TO.C,D1*%
X126096000Y-107340000D02*
X126096000Y-107110000D01*
X126096000Y-109730000D02*
X126096000Y-109500000D01*
X126216000Y-107340000D02*
X126216000Y-107110000D01*
X126216000Y-109730000D02*
X126216000Y-109500000D01*
X121416000Y-109730000D02*
X121416000Y-107110000D01*
X126336000Y-109730000D02*
X126336000Y-107110000D01*
X126336000Y-107110000D02*
X121416000Y-107110000D01*
X126336000Y-109730000D02*
X121416000Y-109730000D01*
%TO.C,D2*%
X132446000Y-102260000D02*
X132446000Y-102030000D01*
X132446000Y-104650000D02*
X132446000Y-104420000D01*
X132566000Y-102260000D02*
X132566000Y-102030000D01*
X132566000Y-104650000D02*
X132566000Y-104420000D01*
X127766000Y-104650000D02*
X127766000Y-102030000D01*
X132686000Y-104650000D02*
X132686000Y-102030000D01*
X132686000Y-102030000D02*
X127766000Y-102030000D01*
X132686000Y-104650000D02*
X127766000Y-104650000D01*
%TO.C,R2*%
X122606000Y-95950000D02*
X122606000Y-95180000D01*
X122606000Y-87870000D02*
X122606000Y-88640000D01*
X123976000Y-95180000D02*
X123976000Y-88640000D01*
X121236000Y-95180000D02*
X123976000Y-95180000D01*
X121236000Y-88640000D02*
X121236000Y-95180000D01*
X123976000Y-88640000D02*
X121236000Y-88640000D01*
%TO.C,R3*%
X128956000Y-95950000D02*
X128956000Y-95180000D01*
X128956000Y-87870000D02*
X128956000Y-88640000D01*
X130326000Y-95180000D02*
X130326000Y-88640000D01*
X127586000Y-95180000D02*
X130326000Y-95180000D01*
X127586000Y-88640000D02*
X127586000Y-95180000D01*
X130326000Y-88640000D02*
X127586000Y-88640000D01*
%TO.C,SW1*%
X170724000Y-98926000D02*
X174564000Y-98926000D01*
X170724000Y-97086000D02*
X174564000Y-97086000D01*
%TO.C,RTC*%
D10*
X183502571Y-76868380D02*
X183169238Y-76392190D01*
X182931142Y-76868380D02*
X182931142Y-75868380D01*
X183312095Y-75868380D01*
X183407333Y-75916000D01*
X183454952Y-75963619D01*
X183502571Y-76058857D01*
X183502571Y-76201714D01*
X183454952Y-76296952D01*
X183407333Y-76344571D01*
X183312095Y-76392190D01*
X182931142Y-76392190D01*
X183788285Y-75868380D02*
X184359714Y-75868380D01*
X184074000Y-76868380D02*
X184074000Y-75868380D01*
X185264476Y-76773142D02*
X185216857Y-76820761D01*
X185074000Y-76868380D01*
X184978761Y-76868380D01*
X184835904Y-76820761D01*
X184740666Y-76725523D01*
X184693047Y-76630285D01*
X184645428Y-76439809D01*
X184645428Y-76296952D01*
X184693047Y-76106476D01*
X184740666Y-76011238D01*
X184835904Y-75916000D01*
X184978761Y-75868380D01*
X185074000Y-75868380D01*
X185216857Y-75916000D01*
X185264476Y-75963619D01*
X193773761Y-75868380D02*
X194107095Y-76868380D01*
X194440428Y-75868380D01*
X194773761Y-76868380D02*
X194773761Y-75868380D01*
X195249952Y-76868380D02*
X195249952Y-75868380D01*
X195821380Y-76868380D01*
X195821380Y-75868380D01*
%TO.C,BH1750*%
X187304857Y-83710571D02*
X187447714Y-83758190D01*
X187495333Y-83805809D01*
X187542952Y-83901047D01*
X187542952Y-84043904D01*
X187495333Y-84139142D01*
X187447714Y-84186761D01*
X187352476Y-84234380D01*
X186971523Y-84234380D01*
X186971523Y-83234380D01*
X187304857Y-83234380D01*
X187400095Y-83282000D01*
X187447714Y-83329619D01*
X187495333Y-83424857D01*
X187495333Y-83520095D01*
X187447714Y-83615333D01*
X187400095Y-83662952D01*
X187304857Y-83710571D01*
X186971523Y-83710571D01*
X187971523Y-84234380D02*
X187971523Y-83234380D01*
X187971523Y-83710571D02*
X188542952Y-83710571D01*
X188542952Y-84234380D02*
X188542952Y-83234380D01*
X189542952Y-84234380D02*
X188971523Y-84234380D01*
X189257238Y-84234380D02*
X189257238Y-83234380D01*
X189162000Y-83377238D01*
X189066761Y-83472476D01*
X188971523Y-83520095D01*
X189876285Y-83234380D02*
X190542952Y-83234380D01*
X190114380Y-84234380D01*
X191400095Y-83234380D02*
X190923904Y-83234380D01*
X190876285Y-83710571D01*
X190923904Y-83662952D01*
X191019142Y-83615333D01*
X191257238Y-83615333D01*
X191352476Y-83662952D01*
X191400095Y-83710571D01*
X191447714Y-83805809D01*
X191447714Y-84043904D01*
X191400095Y-84139142D01*
X191352476Y-84186761D01*
X191257238Y-84234380D01*
X191019142Y-84234380D01*
X190923904Y-84186761D01*
X190876285Y-84139142D01*
X192066761Y-83234380D02*
X192162000Y-83234380D01*
X192257238Y-83282000D01*
X192304857Y-83329619D01*
X192352476Y-83424857D01*
X192400095Y-83615333D01*
X192400095Y-83853428D01*
X192352476Y-84043904D01*
X192304857Y-84139142D01*
X192257238Y-84186761D01*
X192162000Y-84234380D01*
X192066761Y-84234380D01*
X191971523Y-84186761D01*
X191923904Y-84139142D01*
X191876285Y-84043904D01*
X191828666Y-83853428D01*
X191828666Y-83615333D01*
X191876285Y-83424857D01*
X191923904Y-83329619D01*
X191971523Y-83282000D01*
X192066761Y-83234380D01*
%TO.C,R1*%
X185177333Y-92278380D02*
X184844000Y-91802190D01*
X184605904Y-92278380D02*
X184605904Y-91278380D01*
X184986857Y-91278380D01*
X185082095Y-91326000D01*
X185129714Y-91373619D01*
X185177333Y-91468857D01*
X185177333Y-91611714D01*
X185129714Y-91706952D01*
X185082095Y-91754571D01*
X184986857Y-91802190D01*
X184605904Y-91802190D01*
X186129714Y-92278380D02*
X185558285Y-92278380D01*
X185844000Y-92278380D02*
X185844000Y-91278380D01*
X185748761Y-91421238D01*
X185653523Y-91516476D01*
X185558285Y-91564095D01*
%TO.C,HUZZAH*%
X147323714Y-57818380D02*
X147323714Y-56818380D01*
X147323714Y-57294571D02*
X147895142Y-57294571D01*
X147895142Y-57818380D02*
X147895142Y-56818380D01*
X148371333Y-56818380D02*
X148371333Y-57627904D01*
X148418952Y-57723142D01*
X148466571Y-57770761D01*
X148561809Y-57818380D01*
X148752285Y-57818380D01*
X148847523Y-57770761D01*
X148895142Y-57723142D01*
X148942761Y-57627904D01*
X148942761Y-56818380D01*
X149323714Y-56818380D02*
X149990380Y-56818380D01*
X149323714Y-57818380D01*
X149990380Y-57818380D01*
X150276095Y-56818380D02*
X150942761Y-56818380D01*
X150276095Y-57818380D01*
X150942761Y-57818380D01*
X151276095Y-57532666D02*
X151752285Y-57532666D01*
X151180857Y-57818380D02*
X151514190Y-56818380D01*
X151847523Y-57818380D01*
X152180857Y-57818380D02*
X152180857Y-56818380D01*
X152180857Y-57294571D02*
X152752285Y-57294571D01*
X152752285Y-57818380D02*
X152752285Y-56818380D01*
%TO.C,D1*%
X123137904Y-111182380D02*
X123137904Y-110182380D01*
X123376000Y-110182380D01*
X123518857Y-110230000D01*
X123614095Y-110325238D01*
X123661714Y-110420476D01*
X123709333Y-110610952D01*
X123709333Y-110753809D01*
X123661714Y-110944285D01*
X123614095Y-111039523D01*
X123518857Y-111134761D01*
X123376000Y-111182380D01*
X123137904Y-111182380D01*
X124661714Y-111182380D02*
X124090285Y-111182380D01*
X124376000Y-111182380D02*
X124376000Y-110182380D01*
X124280761Y-110325238D01*
X124185523Y-110420476D01*
X124090285Y-110468095D01*
%TO.C,D2*%
X129487904Y-106102380D02*
X129487904Y-105102380D01*
X129726000Y-105102380D01*
X129868857Y-105150000D01*
X129964095Y-105245238D01*
X130011714Y-105340476D01*
X130059333Y-105530952D01*
X130059333Y-105673809D01*
X130011714Y-105864285D01*
X129964095Y-105959523D01*
X129868857Y-106054761D01*
X129726000Y-106102380D01*
X129487904Y-106102380D01*
X130440285Y-105197619D02*
X130487904Y-105150000D01*
X130583142Y-105102380D01*
X130821238Y-105102380D01*
X130916476Y-105150000D01*
X130964095Y-105197619D01*
X131011714Y-105292857D01*
X131011714Y-105388095D01*
X130964095Y-105530952D01*
X130392666Y-106102380D01*
X131011714Y-106102380D01*
%TO.C,R2*%
X125428380Y-92076666D02*
X124952190Y-92410000D01*
X125428380Y-92648095D02*
X124428380Y-92648095D01*
X124428380Y-92267142D01*
X124476000Y-92171904D01*
X124523619Y-92124285D01*
X124618857Y-92076666D01*
X124761714Y-92076666D01*
X124856952Y-92124285D01*
X124904571Y-92171904D01*
X124952190Y-92267142D01*
X124952190Y-92648095D01*
X124523619Y-91695714D02*
X124476000Y-91648095D01*
X124428380Y-91552857D01*
X124428380Y-91314761D01*
X124476000Y-91219523D01*
X124523619Y-91171904D01*
X124618857Y-91124285D01*
X124714095Y-91124285D01*
X124856952Y-91171904D01*
X125428380Y-91743333D01*
X125428380Y-91124285D01*
%TO.C,R3*%
X131778380Y-92076666D02*
X131302190Y-92410000D01*
X131778380Y-92648095D02*
X130778380Y-92648095D01*
X130778380Y-92267142D01*
X130826000Y-92171904D01*
X130873619Y-92124285D01*
X130968857Y-92076666D01*
X131111714Y-92076666D01*
X131206952Y-92124285D01*
X131254571Y-92171904D01*
X131302190Y-92267142D01*
X131302190Y-92648095D01*
X130778380Y-91743333D02*
X130778380Y-91124285D01*
X131159333Y-91457619D01*
X131159333Y-91314761D01*
X131206952Y-91219523D01*
X131254571Y-91171904D01*
X131349809Y-91124285D01*
X131587904Y-91124285D01*
X131683142Y-91171904D01*
X131730761Y-91219523D01*
X131778380Y-91314761D01*
X131778380Y-91600476D01*
X131730761Y-91695714D01*
X131683142Y-91743333D01*
%TO.C,SW1*%
X171310666Y-96490761D02*
X171453523Y-96538380D01*
X171691619Y-96538380D01*
X171786857Y-96490761D01*
X171834476Y-96443142D01*
X171882095Y-96347904D01*
X171882095Y-96252666D01*
X171834476Y-96157428D01*
X171786857Y-96109809D01*
X171691619Y-96062190D01*
X171501142Y-96014571D01*
X171405904Y-95966952D01*
X171358285Y-95919333D01*
X171310666Y-95824095D01*
X171310666Y-95728857D01*
X171358285Y-95633619D01*
X171405904Y-95586000D01*
X171501142Y-95538380D01*
X171739238Y-95538380D01*
X171882095Y-95586000D01*
X172215428Y-95538380D02*
X172453523Y-96538380D01*
X172644000Y-95824095D01*
X172834476Y-96538380D01*
X173072571Y-95538380D01*
X173977333Y-96538380D02*
X173405904Y-96538380D01*
X173691619Y-96538380D02*
X173691619Y-95538380D01*
X173596380Y-95681238D01*
X173501142Y-95776476D01*
X173405904Y-95824095D01*
%TD*%
M02*
